# Blender v3.1.2 OBJ File: 'low poly moon sketchfab.blend'
# www.blender.org
mtllib Moon.mtl
o Icosphere
v 0.000000 4.044301 -0.000000
v 1.275588 4.950222 0.926758
v -0.447474 5.014537 1.377208
v -1.431214 5.022978 0.000000
v -0.485837 4.952463 -1.495277
v 1.198725 4.997726 -0.870914
v 0.446993 6.461863 1.375726
v -1.242101 6.506260 0.902429
v -1.248713 6.510346 -0.907232
v 0.475140 6.507408 -1.462356
v 1.484024 6.480606 0.000000
v -0.000000 7.511015 -0.000000
v -0.265850 4.346537 0.818216
v 0.745922 4.246730 0.541937
v 0.452537 4.833515 1.392739
v 1.504953 4.808465 0.000000
v 0.741572 4.255429 -0.538777
v -0.882393 4.310842 -0.000000
v -1.161136 4.851549 0.843611
v -0.282600 4.258830 -0.869769
v -1.112054 4.889045 -0.807951
v 0.447575 4.843439 -1.377468
v 1.584431 5.738589 0.514804
v 1.498394 5.738589 -0.486849
v -0.000000 5.738589 1.766365
v 0.989233 5.738589 1.361561
v -1.735654 5.738589 0.563940
v -0.996938 5.738589 1.372166
v -1.027827 5.738589 -1.414682
v -1.598381 5.738589 -0.519337
v 1.000515 5.738589 -1.377090
v 0.000000 5.738589 -1.805802
v 1.108459 6.585387 0.805339
v -0.435580 6.609749 1.340551
v -1.400153 6.603942 -0.000000
v -0.432371 6.603333 -1.330676
v 1.092717 6.573361 -0.793902
v 0.260966 7.105070 0.803186
v 0.948890 7.273931 -0.000000
v -0.667839 7.074282 0.485208
v -0.730324 7.199253 -0.530605
v 0.269496 7.149732 -0.829437
vt 0.181819 0.000000
vt 0.227273 0.078731
vt 0.136365 0.078731
vt 0.272728 0.157461
vt 0.318182 0.078731
vt 0.363637 0.157461
vt 0.909091 0.000000
vt 0.954545 0.078731
vt 0.863636 0.078731
vt 0.727273 0.000000
vt 0.772727 0.078731
vt 0.681818 0.078731
vt 0.545455 0.000000
vt 0.590909 0.078731
vt 0.500000 0.078731
vt 0.318182 0.236191
vt 0.090910 0.157461
vt 0.181819 0.157461
vt 0.136365 0.236191
vt 0.818182 0.157461
vt 0.909091 0.157461
vt 0.863636 0.236191
vt 0.636364 0.157461
vt 0.727273 0.157461
vt 0.681818 0.236191
vt 0.454546 0.157461
vt 0.545455 0.157461
vt 0.500000 0.236191
vt 0.227273 0.236191
vt 0.045455 0.236191
vt 0.772727 0.236191
vt 0.590909 0.236191
vt 0.409092 0.236191
vt 0.181819 0.314921
vt 0.272728 0.314921
vt 0.227273 0.393651
vt 0.000000 0.314921
vt 0.090910 0.314921
vt 0.045455 0.393651
vt 0.727273 0.314921
vt 0.818182 0.314921
vt 0.772727 0.393651
vt 0.545455 0.314921
vt 0.636364 0.314921
vt 0.590909 0.393651
vt 0.363637 0.314921
vt 0.454546 0.314921
vt 0.409092 0.393651
vt 0.500000 0.393651
vt 0.454546 0.472382
vt 0.681818 0.393651
vt 0.636364 0.472382
vt 0.863636 0.393651
vt 0.818182 0.472382
vt 0.909091 0.314921
vt 0.136365 0.393651
vt 0.090910 0.472382
vt 0.318182 0.393651
vt 0.272728 0.472382
vt 0.954545 0.236191
vt 1.000000 0.157461
vt 0.409092 0.078731
vt 0.363637 0.000000
vn 0.0023 -0.9378 0.3472
vn 0.6907 -0.6695 0.2733
vn -0.2799 -0.9266 0.2513
vn -0.2863 -0.9478 -0.1407
vn 0.0820 -0.9611 -0.2637
vn 0.9366 -0.2276 0.2666
vn -0.1005 -0.4221 0.9009
vn -0.8507 -0.4969 0.1714
vn -0.6621 -0.3910 -0.6393
vn 0.5719 -0.3529 -0.7405
vn 0.8179 -0.0200 0.5749
vn -0.3548 -0.2630 0.8972
vn -0.9440 -0.3073 -0.1196
vn -0.3517 -0.1477 -0.9244
vn 0.8684 -0.0995 -0.4857
vn 0.4092 0.6698 0.6196
vn -0.3802 0.7656 0.5190
vn -0.7319 0.6545 -0.1897
vn -0.0304 0.6966 -0.7168
vn 0.7841 0.5289 -0.3247
vn 0.2292 0.9175 -0.3251
vn 0.5056 0.6903 -0.5175
vn 0.5014 0.6834 -0.5306
vn -0.0808 0.9039 -0.4200
vn -0.1491 0.7656 -0.6258
vn -0.4056 0.6542 -0.6383
vn -0.4710 0.8716 0.1362
vn -0.5969 0.7911 0.1340
vn -0.6168 0.7637 0.1907
vn -0.1967 0.8478 0.4924
vn -0.2021 0.8366 0.5092
vn 0.0841 0.6760 0.7321
vn 0.2242 0.8972 0.3806
vn 0.4421 0.7231 0.5307
vn 0.7910 0.5336 0.2994
vn 0.8740 0.2783 -0.3983
vn 0.8478 0.2376 -0.4741
vn 0.6606 0.3796 -0.6477
vn -0.0818 0.4482 -0.8902
vn -0.3372 0.3182 -0.8860
vn -0.4583 0.3930 -0.7972
vn -0.9267 0.3253 -0.1882
vn -0.9495 0.2897 -0.1203
vn -0.8619 0.4654 0.2013
vn -0.4822 0.3400 0.8074
vn -0.3549 0.2613 0.8976
vn 0.0408 0.4552 0.8895
vn 0.5541 0.4011 0.7294
vn 0.7913 0.2539 0.5562
vn 0.8618 0.3627 0.3547
vn 0.3885 0.1649 -0.9066
vn 0.3827 -0.2360 -0.8932
vn 0.0682 -0.4027 -0.9128
vn -0.8381 0.1113 -0.5341
vn -0.8077 -0.2875 -0.5147
vn -0.8714 -0.4047 -0.2772
vn -0.7268 0.1744 0.6643
vn -0.7134 -0.2565 0.6521
vn -0.4993 -0.3734 0.7818
vn 0.3660 0.2569 0.8944
vn 0.3719 -0.1892 0.9088
vn 0.5031 -0.2700 0.8210
vn 0.9935 0.0752 -0.0853
vn 0.9956 -0.0377 -0.0855
vn 0.9144 -0.1826 -0.3612
vn 0.5295 -0.5961 -0.6036
vn 0.1939 -0.7700 -0.6078
vn 0.0161 -0.6670 -0.7449
vn -0.5326 -0.6475 -0.5450
vn -0.5817 -0.7306 -0.3575
vn -0.7749 -0.5972 -0.2071
vn -0.7855 -0.6054 0.1285
vn -0.4478 -0.8127 0.3729
vn -0.3506 -0.6553 0.6691
vn 0.7031 -0.6022 -0.3781
vn 0.5908 -0.8068 -0.0089
vn 0.2679 -0.9634 -0.0088
vn -0.1451 -0.6579 0.7390
vn 0.0799 -0.8075 0.5845
vn 0.4380 -0.6623 0.6078
usemtl None
s off
f 1/1/1 14/2/1 13/3/1
f 2/4/2 14/5/2 16/6/2
f 1/7/3 13/8/3 18/9/3
f 1/10/4 18/11/4 20/12/4
f 1/13/5 20/14/5 17/15/5
f 2/4/6 16/6/6 23/16/6
f 3/17/7 15/18/7 25/19/7
f 4/20/8 19/21/8 27/22/8
f 5/23/9 21/24/9 29/25/9
f 6/26/10 22/27/10 31/28/10
f 2/4/11 23/16/11 26/29/11
f 3/17/12 25/19/12 28/30/12
f 4/20/13 27/22/13 30/31/13
f 5/23/14 29/25/14 32/32/14
f 6/26/15 31/28/15 24/33/15
f 7/34/16 33/35/16 38/36/16
f 8/37/17 34/38/17 40/39/17
f 9/40/18 35/41/18 41/42/18
f 10/43/19 36/44/19 42/45/19
f 11/46/20 37/47/20 39/48/20
f 39/48/21 42/49/21 12/50/21
f 39/48/22 37/47/22 42/49/22
f 37/47/23 10/43/23 42/49/23
f 42/45/24 41/51/24 12/52/24
f 42/45/25 36/44/25 41/51/25
f 36/44/26 9/40/26 41/51/26
f 41/42/27 40/53/27 12/54/27
f 41/42/28 35/41/28 40/53/28
f 35/41/29 8/55/29 40/53/29
f 40/39/30 38/56/30 12/57/30
f 40/39/31 34/38/31 38/56/31
f 34/38/32 7/34/32 38/56/32
f 38/36/33 39/58/33 12/59/33
f 38/36/34 33/35/34 39/58/34
f 33/35/35 11/46/35 39/58/35
f 24/33/36 37/47/36 11/46/36
f 24/33/37 31/28/37 37/47/37
f 31/28/38 10/43/38 37/47/38
f 32/32/39 36/44/39 10/43/39
f 32/32/40 29/25/40 36/44/40
f 29/25/41 9/40/41 36/44/41
f 30/31/42 35/41/42 9/40/42
f 30/31/43 27/22/43 35/41/43
f 27/22/44 8/55/44 35/41/44
f 28/30/45 34/38/45 8/37/45
f 28/30/46 25/19/46 34/38/46
f 25/19/47 7/34/47 34/38/47
f 26/29/48 33/35/48 7/34/48
f 26/29/49 23/16/49 33/35/49
f 23/16/50 11/46/50 33/35/50
f 31/28/51 32/32/51 10/43/51
f 31/28/52 22/27/52 32/32/52
f 22/27/53 5/23/53 32/32/53
f 29/25/54 30/31/54 9/40/54
f 29/25/55 21/24/55 30/31/55
f 21/24/56 4/20/56 30/31/56
f 27/22/57 28/60/57 8/55/57
f 27/22/58 19/21/58 28/60/58
f 19/21/59 3/61/59 28/60/59
f 25/19/60 26/29/60 7/34/60
f 25/19/61 15/18/61 26/29/61
f 15/18/62 2/4/62 26/29/62
f 23/16/63 24/33/63 11/46/63
f 23/16/64 16/6/64 24/33/64
f 16/6/65 6/26/65 24/33/65
f 17/15/66 22/27/66 6/26/66
f 17/15/67 20/14/67 22/27/67
f 20/14/68 5/23/68 22/27/68
f 20/12/69 21/24/69 5/23/69
f 20/12/70 18/11/70 21/24/70
f 18/11/71 4/20/71 21/24/71
f 18/9/72 19/21/72 4/20/72
f 18/9/73 13/8/73 19/21/73
f 13/8/74 3/61/74 19/21/74
f 16/6/75 17/62/75 6/26/75
f 16/6/76 14/5/76 17/62/76
f 14/5/77 1/63/77 17/62/77
f 13/3/78 15/18/78 3/17/78
f 13/3/79 14/2/79 15/18/79
f 14/2/80 2/4/80 15/18/80
